Patient4_TMGait_0pt4_03_right_34_EMG.mot
version=1
nRows=19
nColumns=33
inDegrees=no
endheader
time	1LAddLong	2LGlutMax	3LGlutMed	4LIliopsoas	5LSemiMemb	6LBicFemLong	7LRecFem	8LVastMed	9LVastLat	10LGasMed	11LTibAnt	12lTibPost	13LPeroneusLong	14LSol	15LExtDigLong	16LFlexDigLong	17RAddLong	18RGlutMax	19RGlutMed	20RIliopsoas	21RSemiMemb	22RBicFemLong	23RRecFem	24RVastMed	25RVastLat	26RGasMed	27RTibAnt	28RTibPost	29RPeroneusLong	30RSol	31RExtDigLong	32RFlexDigLong
45.713	0.002136	-0.06485	0.061951	0.008698	0.010376	-0.003052	0.060272	0.003815	0.14679	-0.64468	0.00885	0.000305	0.017853	-0.13168	0.006104	-0.072021	0.005798	-0.029755	-0.42221	0.10788	-0.068054	0.1915	-0.053406	-0.09903	-0.00885	-0.00885	0.083466	0.002289	-0.083008	-0.048065	-0.001831	0.00061
45.714	0.005951	-0.068665	0.15884	0.000916	0.010071	0.002899	0.052032	-0.009918	0.065002	-0.50476	-0.009003	-0.035858	0.052795	0.092926	-0.010223	0.55939	-0.000916	-0.085907	-0.21133	0.10071	-0.087128	0.1889	-0.04303	-0.077972	0.004578	-0.010986	0.06958	-0.001984	-0.016479	-0.005493	-0.003052	0.003052
45.715	0.007019	-0.092773	0.090942	-0.005798	0.00946	-0.012054	0.025635	-0.001068	0.014038	-0.29526	0.00351	-0.011902	0.021667	0.18997	-0.015106	0.042114	-0.023804	-0.093994	-0.13626	0.077972	-0.052795	0.20081	-0.046082	-0.092621	-0.007324	-0.010376	0.065765	-0.000458	-0.037079	-0.023193	-0.003967	0.005798
45.716	0.00885	-0.12009	0.03479	-0.004272	0.011597	-0.000458	-0.006104	-0.002441	0.045929	-0.19241	0.007019	-0.003662	0.030975	0.13123	0.003662	-0.080719	-0.026398	-0.095673	0.29434	0.023346	-0.077515	0.14847	-0.05661	-0.059509	-0.010071	-0.014038	0.063477	-0.005341	-0.10147	-0.041962	-0.002136	0.003967
45.717	0.00946	-0.080872	0.072479	-0.010681	0.009003	-0.007629	-0.04776	-0.006714	0.14847	-0.12299	0.019989	0.011292	0.112	0.12238	-0.000763	-0.033264	-0.018616	-0.042267	0.22064	0.02594	-0.039673	0.11887	-0.016479	-0.086365	-0.00946	-0.015564	0.018463	-0.000916	-0.1358	-0.063782	-0.002747	0.00412
45.718	0.006256	-0.077972	0.070038	-0.005188	0.014038	0.009003	-0.025787	0.006256	0.11795	-0.057678	0.021515	-0.000458	0.046844	0.18784	0.020447	-0.040588	-0.012054	-0.08606	0.32486	0.030365	-0.036774	0.11749	-0.046692	-0.063171	-0.00946	-0.009766	-0.083618	-0.003967	-0.064697	-0.055389	-0.003052	0.001373
45.719	0.005188	-0.062866	0.040436	-0.009766	0.011597	0.007019	-0.007935	0.005188	0.058289	-0.069427	0.012817	0.016327	-0.14084	0.24674	0.057983	-0.055237	0.004883	-0.085297	0.13321	0.009155	-0.019531	0.15488	-0.057526	-0.096893	0	-0.006561	-0.1384	-0.006409	0.029449	-0.043335	-0.002594	0.011444
45.72	0.001373	-0.065765	0.017853	0.005188	0.010681	-0.016632	0.026245	-0.001373	0.035706	-0.023956	-0.018158	-0.014038	-0.077515	0.20233	0.030365	-0.052032	0.00885	-0.049286	0.01709	-0.01358	-0.047607	0.16998	-0.045471	-0.094147	-0.002289	-0.002747	-0.093689	-0.00473	0.098419	-0.033417	-0.009155	0.00885
45.721	0.008087	-0.059662	0	0.009003	0.016327	-0.016632	0.010529	0.006104	0.015259	0.002899	0.015106	0.002899	0.050354	0.086212	0.011902	-0.043793	0.007782	-0.003815	-0.15869	-0.005798	-0.090942	0.15457	-0.053101	-0.09079	-0.009918	-0.01236	-0.006104	-0.008698	0.10422	-0.026398	-0.003662	0.011139
45.722	0.003052	-0.051727	0.023346	0.018768	0.007782	-0.009003	-0.014191	-0.008392	0.016632	-0.025024	-0.032043	0.005341	0.12634	0.089264	0.002289	-0.036926	0.025635	0.027924	-0.28458	-0.029907	-0.054321	0.13168	-0.057526	-0.16251	-0.017242	-0.006561	0.067749	-0.005188	0.16357	-0.023193	-0.003204	0.000153
45.723	0.005646	-0.063019	0.035706	0.005646	0.015106	-0.007324	-0.031586	0.000153	0.007172	-0.014954	-0.05127	0.009918	0.088348	0.099487	0.020752	-0.03891	0.015106	-0.003662	0.13473	-0.004578	0.009766	0.1474	-0.06485	-0.12741	0.001678	-0.011444	0.085297	-0.007324	0.19134	-0.027771	0.000458	0.001373
45.724	0.008087	-0.054169	0.1297	-0.002136	0.002289	-0.017548	0.0177	0.002136	0.025635	-0.00473	0.039978	-0.002899	-0.16113	0.042419	0.014191	-0.031281	-0.001984	0.014038	0.32974	0.041351	0.059509	0.14252	-0.087433	-0.079498	0.006104	-0.004272	0.10773	-0.007782	0.26291	-0.015259	-0.003204	0.003357
45.725	-0.000916	-0.039825	0.12436	0.00061	0.018158	-0.006561	0.035553	-0.008087	0.019073	0.012512	0.007172	-0.005951	-0.13016	0.084381	0.016632	-0.027618	-0.012817	-0.04303	0.040131	0.028381	-0.019836	0.11658	-0.075226	-0.070496	-0.007782	-0.015564	-0.036774	-0.007477	0.27969	-0.004272	-0.005188	-0.005951
45.726	0.002594	-0.051727	0.13626	-0.002747	0.01297	-0.006409	0.027924	-0.000763	0.015259	0.054474	-0.011902	-0.006714	0.046539	0.085602	0.029602	-0.026398	-0.008698	-0.062103	-0.14572	-0.020294	-0.005493	0.089111	-0.062561	-0.075989	-0.001068	-0.002136	0.032654	-0.004578	-0.011902	-0.019073	-0.000305	-0.00061
45.727	0.007324	-0.056152	0.11963	0.006409	0.013275	0.000458	0.042725	-0.008545	0.001373	0.10834	0.009155	-0.004578	-0.2446	0.066528	0.035553	-0.007019	-0.016632	-0.06485	-0.25391	-0.041504	-0.070038	0.15915	-0.091858	-0.056305	-0.00412	-0.001221	0.25482	-0.004578	-0.52383	0.010223	0.000305	0.005035
45.728	0.007019	-0.070953	0.10483	-0.006561	0.053864	-0.011749	0.019226	0.002136	0.003357	-0.037079	0.00885	0.00946	0.025635	0.005035	0.00824	-0.013275	-0.029449	-0.049133	0.18417	-0.11841	-0.12466	0.15228	-0.080109	-0.094452	-0.009918	-0.004272	0.29144	-0.006714	-0.052032	-0.009766	-0.00061	0.003815
45.729	0.010071	-0.080414	0.077209	0.002136	0.025482	-0.007782	0.021667	-0.000916	0.001831	-0.039673	0.020752	0.007324	0.027161	0.02594	0.024567	-0.007019	-0.019531	-0.040131	-0.29678	-0.024414	-0.17014	0.13611	-0.050964	-0.095673	0.000153	-0.010681	0.24338	-0.007935	0.21225	-0.042725	0.002747	0.003052
45.73	0.009308	-0.078888	0.05127	-0.010529	0.024261	-0.021667	-0.00946	0.005188	0.007935	0.16068	0.016937	0.009613	0.057068	0.035248	0.017853	-0.007324	-0.012512	-0.002441	-0.4039	0.11719	-0.18494	0.10391	-0.050964	-0.039825	-0.003204	-0.009003	0.26825	-0.004425	0.062714	-0.038757	0.003052	0.002747
45.731	0.009613	-0.041809	0.068207	0	0.011444	-0.023956	-0.016632	0.011139	0.009308	0.23086	0.000763	-0.006256	0.081329	-0.014038	0.024567	-0.00885	-0.03067	-0.025024	-0.094147	0.18402	-0.13443	0.10132	-0.085449	-0.039215	-0.003052	-0.007782	-0.062714	-0.004425	-0.24338	-0.067444	0.001068	0.014801
